<mxfile host="app.diagrams.net" modified="2023-10-12T11:27:54.735Z" agent="Mozilla/5.0 (Macintosh; Intel Mac OS X 10_15_7) AppleWebKit/537.36 (KHTML, like Gecko) Chrome/116.0.0.0 Safari/537.36" etag="y3KGPeM2o4XzoVXxSTsg" version="22.0.4" type="github">
  <diagram name="第 1 页" id="0fz7lVgja0e8gA1UaTwW">
    <mxGraphModel dx="2487" dy="1729" grid="1" gridSize="10" guides="1" tooltips="1" connect="1" arrows="1" fold="1" page="0" pageScale="1" pageWidth="1169" pageHeight="827" background="none" math="0" shadow="0">
      <root>
        <mxCell id="0" />
        <mxCell id="1" parent="0" />
        <mxCell id="rrPpUQ1Ko49chvr30mVs-29" value="" style="swimlane;startSize=0;" vertex="1" parent="1">
          <mxGeometry x="-285" y="-320" width="970" height="420" as="geometry" />
        </mxCell>
        <mxCell id="rrPpUQ1Ko49chvr30mVs-30" value="自动化执行流程" style="text;html=1;align=center;verticalAlign=middle;resizable=0;points=[];autosize=1;strokeColor=none;fillColor=none;" vertex="1" parent="rrPpUQ1Ko49chvr30mVs-29">
          <mxGeometry x="425" width="110" height="30" as="geometry" />
        </mxCell>
        <mxCell id="rrPpUQ1Ko49chvr30mVs-151" style="edgeStyle=orthogonalEdgeStyle;rounded=0;orthogonalLoop=1;jettySize=auto;html=1;entryX=0.5;entryY=0;entryDx=0;entryDy=0;" edge="1" parent="rrPpUQ1Ko49chvr30mVs-29" source="rrPpUQ1Ko49chvr30mVs-23" target="rrPpUQ1Ko49chvr30mVs-25">
          <mxGeometry relative="1" as="geometry" />
        </mxCell>
        <mxCell id="rrPpUQ1Ko49chvr30mVs-23" value="数据保存" style="rounded=1;whiteSpace=wrap;html=1;" vertex="1" parent="rrPpUQ1Ko49chvr30mVs-29">
          <mxGeometry x="25" y="180" width="120" height="60" as="geometry" />
        </mxCell>
        <mxCell id="rrPpUQ1Ko49chvr30mVs-19" value="情报执行" style="rounded=1;whiteSpace=wrap;html=1;" vertex="1" parent="rrPpUQ1Ko49chvr30mVs-29">
          <mxGeometry x="425" y="180" width="120" height="60" as="geometry" />
        </mxCell>
        <mxCell id="rrPpUQ1Ko49chvr30mVs-21" value="错误处理" style="rounded=1;whiteSpace=wrap;html=1;" vertex="1" parent="rrPpUQ1Ko49chvr30mVs-29">
          <mxGeometry x="225" y="180" width="120" height="60" as="geometry" />
        </mxCell>
        <mxCell id="rrPpUQ1Ko49chvr30mVs-22" value="" style="edgeStyle=orthogonalEdgeStyle;rounded=0;orthogonalLoop=1;jettySize=auto;html=1;" edge="1" parent="rrPpUQ1Ko49chvr30mVs-29" source="rrPpUQ1Ko49chvr30mVs-19" target="rrPpUQ1Ko49chvr30mVs-21">
          <mxGeometry relative="1" as="geometry" />
        </mxCell>
        <mxCell id="rrPpUQ1Ko49chvr30mVs-24" value="" style="edgeStyle=orthogonalEdgeStyle;rounded=0;orthogonalLoop=1;jettySize=auto;html=1;" edge="1" parent="rrPpUQ1Ko49chvr30mVs-29" source="rrPpUQ1Ko49chvr30mVs-21" target="rrPpUQ1Ko49chvr30mVs-23">
          <mxGeometry relative="1" as="geometry" />
        </mxCell>
        <mxCell id="rrPpUQ1Ko49chvr30mVs-38" style="edgeStyle=orthogonalEdgeStyle;rounded=0;orthogonalLoop=1;jettySize=auto;html=1;" edge="1" parent="rrPpUQ1Ko49chvr30mVs-29" source="rrPpUQ1Ko49chvr30mVs-36" target="rrPpUQ1Ko49chvr30mVs-19">
          <mxGeometry relative="1" as="geometry" />
        </mxCell>
        <mxCell id="rrPpUQ1Ko49chvr30mVs-36" value="数据加载" style="rounded=1;whiteSpace=wrap;html=1;" vertex="1" parent="rrPpUQ1Ko49chvr30mVs-29">
          <mxGeometry x="625" y="180" width="120" height="60" as="geometry" />
        </mxCell>
        <mxCell id="rrPpUQ1Ko49chvr30mVs-25" value="任务结束" style="rounded=1;whiteSpace=wrap;html=1;" vertex="1" parent="rrPpUQ1Ko49chvr30mVs-29">
          <mxGeometry x="25" y="300" width="120" height="60" as="geometry" />
        </mxCell>
        <mxCell id="rrPpUQ1Ko49chvr30mVs-1" value="" style="endArrow=none;dashed=1;html=1;dashPattern=1 3;strokeWidth=2;rounded=0;" edge="1" parent="1">
          <mxGeometry width="50" height="50" relative="1" as="geometry">
            <mxPoint x="-205" y="940" as="sourcePoint" />
            <mxPoint x="2290" y="940" as="targetPoint" />
          </mxGeometry>
        </mxCell>
        <mxCell id="rrPpUQ1Ko49chvr30mVs-2" value="" style="endArrow=none;dashed=1;html=1;dashPattern=1 3;strokeWidth=2;rounded=0;" edge="1" parent="1">
          <mxGeometry width="50" height="50" relative="1" as="geometry">
            <mxPoint x="-215" y="1120" as="sourcePoint" />
            <mxPoint x="2280" y="1120" as="targetPoint" />
          </mxGeometry>
        </mxCell>
        <mxCell id="rrPpUQ1Ko49chvr30mVs-4" value="自动化前" style="text;html=1;align=center;verticalAlign=middle;resizable=0;points=[];autosize=1;strokeColor=none;fillColor=none;" vertex="1" parent="1">
          <mxGeometry x="-310" y="1012" width="70" height="30" as="geometry" />
        </mxCell>
        <mxCell id="rrPpUQ1Ko49chvr30mVs-5" value="自动化中" style="text;html=1;align=center;verticalAlign=middle;resizable=0;points=[];autosize=1;strokeColor=none;fillColor=none;" vertex="1" parent="1">
          <mxGeometry x="-310" y="1230" width="70" height="30" as="geometry" />
        </mxCell>
        <mxCell id="rrPpUQ1Ko49chvr30mVs-6" value="自动化结束" style="text;html=1;align=center;verticalAlign=middle;resizable=0;points=[];autosize=1;strokeColor=none;fillColor=none;" vertex="1" parent="1">
          <mxGeometry x="-315" y="1470" width="80" height="30" as="geometry" />
        </mxCell>
        <mxCell id="rrPpUQ1Ko49chvr30mVs-7" value="任务调度" style="rounded=1;whiteSpace=wrap;html=1;" vertex="1" parent="1">
          <mxGeometry x="50" y="840" width="120" height="60" as="geometry" />
        </mxCell>
        <mxCell id="rrPpUQ1Ko49chvr30mVs-10" value="" style="edgeStyle=orthogonalEdgeStyle;rounded=0;orthogonalLoop=1;jettySize=auto;html=1;" edge="1" parent="1" source="rrPpUQ1Ko49chvr30mVs-8" target="rrPpUQ1Ko49chvr30mVs-9">
          <mxGeometry relative="1" as="geometry" />
        </mxCell>
        <mxCell id="rrPpUQ1Ko49chvr30mVs-8" value="任务调度" style="rounded=1;whiteSpace=wrap;html=1;" vertex="1" parent="1">
          <mxGeometry x="-60" y="-260" width="120" height="60" as="geometry" />
        </mxCell>
        <mxCell id="rrPpUQ1Ko49chvr30mVs-14" value="" style="edgeStyle=orthogonalEdgeStyle;rounded=0;orthogonalLoop=1;jettySize=auto;html=1;" edge="1" parent="1" source="rrPpUQ1Ko49chvr30mVs-9" target="rrPpUQ1Ko49chvr30mVs-13">
          <mxGeometry relative="1" as="geometry" />
        </mxCell>
        <mxCell id="rrPpUQ1Ko49chvr30mVs-9" value="任务解析" style="rounded=1;whiteSpace=wrap;html=1;noLabel=0;" vertex="1" parent="1">
          <mxGeometry x="140" y="-260" width="120" height="60" as="geometry" />
        </mxCell>
        <mxCell id="rrPpUQ1Ko49chvr30mVs-12" style="edgeStyle=orthogonalEdgeStyle;rounded=0;orthogonalLoop=1;jettySize=auto;html=1;" edge="1" parent="1" source="rrPpUQ1Ko49chvr30mVs-11" target="rrPpUQ1Ko49chvr30mVs-8">
          <mxGeometry relative="1" as="geometry" />
        </mxCell>
        <mxCell id="rrPpUQ1Ko49chvr30mVs-11" value="情报源" style="rounded=1;whiteSpace=wrap;html=1;" vertex="1" parent="1">
          <mxGeometry x="-260" y="-260" width="120" height="60" as="geometry" />
        </mxCell>
        <mxCell id="rrPpUQ1Ko49chvr30mVs-16" value="" style="edgeStyle=orthogonalEdgeStyle;rounded=0;orthogonalLoop=1;jettySize=auto;html=1;" edge="1" parent="1" source="rrPpUQ1Ko49chvr30mVs-13" target="rrPpUQ1Ko49chvr30mVs-15">
          <mxGeometry relative="1" as="geometry" />
        </mxCell>
        <mxCell id="rrPpUQ1Ko49chvr30mVs-13" value="情报解析" style="rounded=1;whiteSpace=wrap;html=1;" vertex="1" parent="1">
          <mxGeometry x="340" y="-260" width="120" height="60" as="geometry" />
        </mxCell>
        <mxCell id="rrPpUQ1Ko49chvr30mVs-18" value="" style="edgeStyle=orthogonalEdgeStyle;rounded=0;orthogonalLoop=1;jettySize=auto;html=1;" edge="1" parent="1" source="rrPpUQ1Ko49chvr30mVs-15" target="rrPpUQ1Ko49chvr30mVs-17">
          <mxGeometry relative="1" as="geometry" />
        </mxCell>
        <mxCell id="rrPpUQ1Ko49chvr30mVs-15" value="初始化" style="rounded=1;whiteSpace=wrap;html=1;" vertex="1" parent="1">
          <mxGeometry x="540" y="-260" width="120" height="60" as="geometry" />
        </mxCell>
        <mxCell id="rrPpUQ1Ko49chvr30mVs-37" style="edgeStyle=orthogonalEdgeStyle;rounded=0;orthogonalLoop=1;jettySize=auto;html=1;entryX=1;entryY=0.5;entryDx=0;entryDy=0;" edge="1" parent="1" source="rrPpUQ1Ko49chvr30mVs-17" target="rrPpUQ1Ko49chvr30mVs-36">
          <mxGeometry relative="1" as="geometry" />
        </mxCell>
        <mxCell id="rrPpUQ1Ko49chvr30mVs-17" value="情报触发" style="rounded=1;whiteSpace=wrap;html=1;" vertex="1" parent="1">
          <mxGeometry x="540" y="-140" width="120" height="60" as="geometry" />
        </mxCell>
        <mxCell id="rrPpUQ1Ko49chvr30mVs-31" value="1. 先梳理业务流程、每个步骤是干什么的" style="text;html=1;align=center;verticalAlign=middle;resizable=0;points=[];autosize=1;strokeColor=none;fillColor=none;" vertex="1" parent="1">
          <mxGeometry x="50" y="-510" width="240" height="30" as="geometry" />
        </mxCell>
        <mxCell id="rrPpUQ1Ko49chvr30mVs-32" value="2.分析实现这个业务流程、需要具备哪些能力" style="text;html=1;align=center;verticalAlign=middle;resizable=0;points=[];autosize=1;strokeColor=none;fillColor=none;" vertex="1" parent="1">
          <mxGeometry x="50" y="-480" width="260" height="30" as="geometry" />
        </mxCell>
        <mxCell id="rrPpUQ1Ko49chvr30mVs-33" value="3. 为了具备这些能力、我怎么设计、想怎么做？怎么拆分？" style="text;html=1;align=center;verticalAlign=middle;resizable=0;points=[];autosize=1;strokeColor=none;fillColor=none;" vertex="1" parent="1">
          <mxGeometry x="50" y="-450" width="340" height="30" as="geometry" />
        </mxCell>
        <mxCell id="rrPpUQ1Ko49chvr30mVs-34" value="把流程和代码执行顺序分开、写业务流程时不要受代码执行顺序影响。" style="text;html=1;align=center;verticalAlign=middle;resizable=0;points=[];autosize=1;strokeColor=none;fillColor=none;" vertex="1" parent="1">
          <mxGeometry x="-410" y="-392" width="400" height="30" as="geometry" />
        </mxCell>
        <mxCell id="rrPpUQ1Ko49chvr30mVs-41" value="情报源" style="rounded=1;whiteSpace=wrap;html=1;" vertex="1" parent="1">
          <mxGeometry x="-270" y="130" width="120" height="60" as="geometry" />
        </mxCell>
        <mxCell id="rrPpUQ1Ko49chvr30mVs-42" value="1. 情报采集&lt;br&gt;&lt;div style=&quot;text-align: left;&quot;&gt;&lt;span style=&quot;background-color: initial;&quot;&gt;2. 数据清洗&lt;/span&gt;&lt;/div&gt;&lt;div style=&quot;text-align: left;&quot;&gt;&lt;span style=&quot;background-color: initial;&quot;&gt;3. 情报下发&lt;/span&gt;&lt;/div&gt;" style="text;html=1;align=center;verticalAlign=middle;resizable=0;points=[];autosize=1;strokeColor=none;fillColor=none;" vertex="1" parent="1">
          <mxGeometry x="-140" y="130" width="80" height="60" as="geometry" />
        </mxCell>
        <mxCell id="rrPpUQ1Ko49chvr30mVs-44" value="任务调度" style="rounded=1;whiteSpace=wrap;html=1;" vertex="1" parent="1">
          <mxGeometry x="-270" y="200" width="120" height="60" as="geometry" />
        </mxCell>
        <mxCell id="rrPpUQ1Ko49chvr30mVs-45" value="1. 任务创建&lt;br&gt;2. 任务流程控制&lt;br&gt;3. 请求自动化&amp;nbsp;" style="text;html=1;align=left;verticalAlign=middle;resizable=0;points=[];autosize=1;strokeColor=none;fillColor=none;" vertex="1" parent="1">
          <mxGeometry x="-130" y="200" width="110" height="60" as="geometry" />
        </mxCell>
        <mxCell id="rrPpUQ1Ko49chvr30mVs-46" value="任务解析" style="rounded=1;whiteSpace=wrap;html=1;" vertex="1" parent="1">
          <mxGeometry x="-270" y="270" width="120" height="60" as="geometry" />
        </mxCell>
        <mxCell id="rrPpUQ1Ko49chvr30mVs-47" value="1. 字段完整性校验" style="text;html=1;align=left;verticalAlign=middle;resizable=0;points=[];autosize=1;strokeColor=none;fillColor=none;" vertex="1" parent="1">
          <mxGeometry x="-130" y="285" width="120" height="30" as="geometry" />
        </mxCell>
        <mxCell id="rrPpUQ1Ko49chvr30mVs-48" value="情报解析" style="rounded=1;whiteSpace=wrap;html=1;" vertex="1" parent="1">
          <mxGeometry x="-270" y="340" width="120" height="60" as="geometry" />
        </mxCell>
        <mxCell id="rrPpUQ1Ko49chvr30mVs-49" value="1. 字段完整性校验&lt;br&gt;2. 情报执行前校验&lt;br&gt;3. 可能有情报格式转换，理想状态提供的就是可直接执行的情报" style="text;html=1;align=left;verticalAlign=middle;resizable=0;points=[];autosize=1;strokeColor=none;fillColor=none;" vertex="1" parent="1">
          <mxGeometry x="-130" y="340" width="360" height="60" as="geometry" />
        </mxCell>
        <mxCell id="rrPpUQ1Ko49chvr30mVs-50" value="初始化" style="rounded=1;whiteSpace=wrap;html=1;" vertex="1" parent="1">
          <mxGeometry x="-270" y="410" width="120" height="60" as="geometry" />
        </mxCell>
        <mxCell id="rrPpUQ1Ko49chvr30mVs-51" value="1.上下文数据更新(任务、情报信息)&lt;br&gt;2. 执行环境准备(数据规格、contribution、请求、埋点)" style="text;html=1;align=left;verticalAlign=middle;resizable=0;points=[];autosize=1;strokeColor=none;fillColor=none;" vertex="1" parent="1">
          <mxGeometry x="-130" y="420" width="310" height="40" as="geometry" />
        </mxCell>
        <mxCell id="rrPpUQ1Ko49chvr30mVs-52" value="情报触发" style="rounded=1;whiteSpace=wrap;html=1;" vertex="1" parent="1">
          <mxGeometry x="240" y="130" width="120" height="60" as="geometry" />
        </mxCell>
        <mxCell id="rrPpUQ1Ko49chvr30mVs-53" value="1. 提供某种方式触发执行情报、可能不是通过任务、而是通过其他方式，本地自动化测试的方式触发" style="text;html=1;align=left;verticalAlign=middle;resizable=0;points=[];autosize=1;strokeColor=none;fillColor=none;" vertex="1" parent="1">
          <mxGeometry x="380" y="145" width="550" height="30" as="geometry" />
        </mxCell>
        <mxCell id="rrPpUQ1Ko49chvr30mVs-54" value="数据加载" style="rounded=1;whiteSpace=wrap;html=1;" vertex="1" parent="1">
          <mxGeometry x="240" y="200" width="120" height="60" as="geometry" />
        </mxCell>
        <mxCell id="rrPpUQ1Ko49chvr30mVs-55" value="1. 同步的方式加载数据、加载完毕后才能后续执行&lt;br&gt;2. 支持多种数据加载方式、headless如何加载？node如何加载？" style="text;html=1;align=left;verticalAlign=middle;resizable=0;points=[];autosize=1;strokeColor=none;fillColor=none;" vertex="1" parent="1">
          <mxGeometry x="380" y="210" width="360" height="40" as="geometry" />
        </mxCell>
        <mxCell id="rrPpUQ1Ko49chvr30mVs-56" value="情报执行" style="rounded=1;whiteSpace=wrap;html=1;" vertex="1" parent="1">
          <mxGeometry x="240" y="270" width="120" height="60" as="geometry" />
        </mxCell>
        <mxCell id="rrPpUQ1Ko49chvr30mVs-57" value="1. 执行前检查(拿到具体数据做检查，比如情报提供的数据还是否存在、是否有变更等)&lt;br&gt;2. 执行情报内容&lt;br&gt;3. 实时维护&lt;br&gt;4 被动维护&lt;br&gt;5. 处理事务" style="text;html=1;align=left;verticalAlign=middle;resizable=0;points=[];autosize=1;strokeColor=none;fillColor=none;" vertex="1" parent="1">
          <mxGeometry x="380" y="255" width="480" height="90" as="geometry" />
        </mxCell>
        <mxCell id="rrPpUQ1Ko49chvr30mVs-58" value="错误处理" style="rounded=1;whiteSpace=wrap;html=1;" vertex="1" parent="1">
          <mxGeometry x="240" y="340" width="120" height="60" as="geometry" />
        </mxCell>
        <mxCell id="rrPpUQ1Ko49chvr30mVs-59" value="1. 成功/错误 情报打标记&lt;br&gt;2. 保存被动维护发log" style="text;html=1;align=left;verticalAlign=middle;resizable=0;points=[];autosize=1;strokeColor=none;fillColor=none;" vertex="1" parent="1">
          <mxGeometry x="380" y="350" width="150" height="40" as="geometry" />
        </mxCell>
        <mxCell id="rrPpUQ1Ko49chvr30mVs-60" value="数据保存" style="rounded=1;whiteSpace=wrap;html=1;" vertex="1" parent="1">
          <mxGeometry x="240" y="410" width="120" height="60" as="geometry" />
        </mxCell>
        <mxCell id="rrPpUQ1Ko49chvr30mVs-61" value="1. changeset 编辑库写入&lt;br&gt;2. 写入结果处理、成功失败标记" style="text;html=1;align=left;verticalAlign=middle;resizable=0;points=[];autosize=1;strokeColor=none;fillColor=none;" vertex="1" parent="1">
          <mxGeometry x="380" y="420" width="190" height="40" as="geometry" />
        </mxCell>
        <mxCell id="rrPpUQ1Ko49chvr30mVs-62" value="任务结束" style="rounded=1;whiteSpace=wrap;html=1;" vertex="1" parent="1">
          <mxGeometry x="240" y="480" width="120" height="60" as="geometry" />
        </mxCell>
        <mxCell id="rrPpUQ1Ko49chvr30mVs-63" value="1. 重置相关信息、释放内存&lt;br&gt;2. 清除加载数据、历史记录等&lt;br&gt;3. 请求返回" style="text;html=1;align=left;verticalAlign=middle;resizable=0;points=[];autosize=1;strokeColor=none;fillColor=none;" vertex="1" parent="1">
          <mxGeometry x="380" y="480" width="180" height="60" as="geometry" />
        </mxCell>
        <mxCell id="rrPpUQ1Ko49chvr30mVs-64" value="情报源" style="rounded=1;whiteSpace=wrap;html=1;" vertex="1" parent="1">
          <mxGeometry x="-180" y="840" width="120" height="60" as="geometry" />
        </mxCell>
        <mxCell id="rrPpUQ1Ko49chvr30mVs-65" value="任务解析" style="rounded=1;whiteSpace=wrap;html=1;" vertex="1" parent="1">
          <mxGeometry x="280" y="840" width="120" height="60" as="geometry" />
        </mxCell>
        <mxCell id="rrPpUQ1Ko49chvr30mVs-66" value="" style="endArrow=none;dashed=1;html=1;rounded=0;" edge="1" parent="1">
          <mxGeometry width="50" height="50" relative="1" as="geometry">
            <mxPoint x="-0.56" y="1548" as="sourcePoint" />
            <mxPoint x="-0.56" y="818" as="targetPoint" />
          </mxGeometry>
        </mxCell>
        <mxCell id="rrPpUQ1Ko49chvr30mVs-67" value="" style="endArrow=none;dashed=1;html=1;rounded=0;" edge="1" parent="1">
          <mxGeometry width="50" height="50" relative="1" as="geometry">
            <mxPoint x="220" y="1540" as="sourcePoint" />
            <mxPoint x="219.52" y="820" as="targetPoint" />
          </mxGeometry>
        </mxCell>
        <mxCell id="rrPpUQ1Ko49chvr30mVs-68" value="" style="endArrow=none;dashed=1;html=1;rounded=0;" edge="1" parent="1">
          <mxGeometry width="50" height="50" relative="1" as="geometry">
            <mxPoint x="460" y="1530" as="sourcePoint" />
            <mxPoint x="460" y="820" as="targetPoint" />
          </mxGeometry>
        </mxCell>
        <mxCell id="rrPpUQ1Ko49chvr30mVs-76" style="edgeStyle=orthogonalEdgeStyle;rounded=0;orthogonalLoop=1;jettySize=auto;html=1;" edge="1" parent="1" source="rrPpUQ1Ko49chvr30mVs-69" target="rrPpUQ1Ko49chvr30mVs-70">
          <mxGeometry relative="1" as="geometry" />
        </mxCell>
        <mxCell id="rrPpUQ1Ko49chvr30mVs-69" value="情报挖掘" style="text;html=1;align=center;verticalAlign=middle;resizable=0;points=[];autosize=1;strokeColor=none;fillColor=none;" vertex="1" parent="1">
          <mxGeometry x="-155" y="948" width="70" height="30" as="geometry" />
        </mxCell>
        <mxCell id="rrPpUQ1Ko49chvr30mVs-73" value="" style="edgeStyle=orthogonalEdgeStyle;rounded=0;orthogonalLoop=1;jettySize=auto;html=1;" edge="1" parent="1" source="rrPpUQ1Ko49chvr30mVs-70" target="rrPpUQ1Ko49chvr30mVs-72">
          <mxGeometry relative="1" as="geometry" />
        </mxCell>
        <mxCell id="rrPpUQ1Ko49chvr30mVs-70" value="清洗、过滤" style="text;html=1;align=center;verticalAlign=middle;resizable=0;points=[];autosize=1;strokeColor=none;fillColor=none;" vertex="1" parent="1">
          <mxGeometry x="-160" y="1012" width="80" height="30" as="geometry" />
        </mxCell>
        <mxCell id="rrPpUQ1Ko49chvr30mVs-77" style="edgeStyle=orthogonalEdgeStyle;rounded=0;orthogonalLoop=1;jettySize=auto;html=1;entryX=0.008;entryY=0.494;entryDx=0;entryDy=0;entryPerimeter=0;" edge="1" parent="1" source="rrPpUQ1Ko49chvr30mVs-72" target="rrPpUQ1Ko49chvr30mVs-78">
          <mxGeometry relative="1" as="geometry">
            <mxPoint x="40" y="970" as="targetPoint" />
            <Array as="points">
              <mxPoint x="-20" y="1087" />
              <mxPoint x="-20" y="963" />
            </Array>
          </mxGeometry>
        </mxCell>
        <mxCell id="rrPpUQ1Ko49chvr30mVs-72" value="可靠情报" style="text;html=1;align=center;verticalAlign=middle;resizable=0;points=[];autosize=1;strokeColor=none;fillColor=none;" vertex="1" parent="1">
          <mxGeometry x="-155" y="1072" width="70" height="30" as="geometry" />
        </mxCell>
        <mxCell id="rrPpUQ1Ko49chvr30mVs-81" value="" style="edgeStyle=orthogonalEdgeStyle;rounded=0;orthogonalLoop=1;jettySize=auto;html=1;" edge="1" parent="1" source="rrPpUQ1Ko49chvr30mVs-78" target="rrPpUQ1Ko49chvr30mVs-80">
          <mxGeometry relative="1" as="geometry" />
        </mxCell>
        <mxCell id="rrPpUQ1Ko49chvr30mVs-78" value="任务创建" style="text;html=1;align=center;verticalAlign=middle;resizable=0;points=[];autosize=1;strokeColor=none;fillColor=none;" vertex="1" parent="1">
          <mxGeometry x="75" y="948" width="70" height="30" as="geometry" />
        </mxCell>
        <mxCell id="rrPpUQ1Ko49chvr30mVs-83" value="" style="edgeStyle=orthogonalEdgeStyle;rounded=0;orthogonalLoop=1;jettySize=auto;html=1;" edge="1" parent="1" source="rrPpUQ1Ko49chvr30mVs-80" target="rrPpUQ1Ko49chvr30mVs-82">
          <mxGeometry relative="1" as="geometry" />
        </mxCell>
        <mxCell id="rrPpUQ1Ko49chvr30mVs-80" value="流程控制" style="text;html=1;align=center;verticalAlign=middle;resizable=0;points=[];autosize=1;strokeColor=none;fillColor=none;" vertex="1" parent="1">
          <mxGeometry x="75" y="1012" width="70" height="30" as="geometry" />
        </mxCell>
        <mxCell id="rrPpUQ1Ko49chvr30mVs-82" value="请求自动化任务" style="text;html=1;align=center;verticalAlign=middle;resizable=0;points=[];autosize=1;strokeColor=none;fillColor=none;" vertex="1" parent="1">
          <mxGeometry x="55" y="1072" width="110" height="30" as="geometry" />
        </mxCell>
        <mxCell id="rrPpUQ1Ko49chvr30mVs-89" style="edgeStyle=orthogonalEdgeStyle;rounded=0;orthogonalLoop=1;jettySize=auto;html=1;" edge="1" parent="1" source="rrPpUQ1Ko49chvr30mVs-84" target="rrPpUQ1Ko49chvr30mVs-87">
          <mxGeometry relative="1" as="geometry" />
        </mxCell>
        <mxCell id="rrPpUQ1Ko49chvr30mVs-84" value="任务字段完整性校验" style="text;html=1;align=center;verticalAlign=middle;resizable=0;points=[];autosize=1;strokeColor=none;fillColor=none;" vertex="1" parent="1">
          <mxGeometry x="275" y="948" width="130" height="30" as="geometry" />
        </mxCell>
        <mxCell id="rrPpUQ1Ko49chvr30mVs-85" value="情报解析" style="rounded=1;whiteSpace=wrap;html=1;" vertex="1" parent="1">
          <mxGeometry x="520" y="840" width="120" height="60" as="geometry" />
        </mxCell>
        <mxCell id="rrPpUQ1Ko49chvr30mVs-86" value="" style="endArrow=none;dashed=1;html=1;rounded=0;" edge="1" parent="1">
          <mxGeometry width="50" height="50" relative="1" as="geometry">
            <mxPoint x="700" y="1540" as="sourcePoint" />
            <mxPoint x="700" y="820" as="targetPoint" />
          </mxGeometry>
        </mxCell>
        <mxCell id="rrPpUQ1Ko49chvr30mVs-93" style="edgeStyle=orthogonalEdgeStyle;rounded=0;orthogonalLoop=1;jettySize=auto;html=1;" edge="1" parent="1" source="rrPpUQ1Ko49chvr30mVs-87" target="rrPpUQ1Ko49chvr30mVs-91">
          <mxGeometry relative="1" as="geometry" />
        </mxCell>
        <mxCell id="rrPpUQ1Ko49chvr30mVs-87" value="情报字段完整性校验" style="text;html=1;align=center;verticalAlign=middle;resizable=0;points=[];autosize=1;strokeColor=none;fillColor=none;" vertex="1" parent="1">
          <mxGeometry x="510" y="948" width="130" height="30" as="geometry" />
        </mxCell>
        <mxCell id="rrPpUQ1Ko49chvr30mVs-88" style="edgeStyle=orthogonalEdgeStyle;rounded=0;orthogonalLoop=1;jettySize=auto;html=1;entryX=-0.008;entryY=0.487;entryDx=0;entryDy=0;entryPerimeter=0;" edge="1" parent="1" source="rrPpUQ1Ko49chvr30mVs-82" target="rrPpUQ1Ko49chvr30mVs-84">
          <mxGeometry relative="1" as="geometry" />
        </mxCell>
        <mxCell id="rrPpUQ1Ko49chvr30mVs-94" style="edgeStyle=orthogonalEdgeStyle;rounded=0;orthogonalLoop=1;jettySize=auto;html=1;" edge="1" parent="1" source="rrPpUQ1Ko49chvr30mVs-91" target="rrPpUQ1Ko49chvr30mVs-92">
          <mxGeometry relative="1" as="geometry" />
        </mxCell>
        <mxCell id="rrPpUQ1Ko49chvr30mVs-91" value="情报执行前校验" style="text;html=1;align=center;verticalAlign=middle;resizable=0;points=[];autosize=1;strokeColor=none;fillColor=none;" vertex="1" parent="1">
          <mxGeometry x="520" y="1008" width="110" height="30" as="geometry" />
        </mxCell>
        <mxCell id="rrPpUQ1Ko49chvr30mVs-92" value="?情报格式转换" style="text;html=1;align=center;verticalAlign=middle;resizable=0;points=[];autosize=1;strokeColor=none;fillColor=none;" vertex="1" parent="1">
          <mxGeometry x="525" y="1060" width="100" height="30" as="geometry" />
        </mxCell>
        <mxCell id="rrPpUQ1Ko49chvr30mVs-95" value="初始化" style="rounded=1;whiteSpace=wrap;html=1;" vertex="1" parent="1">
          <mxGeometry x="750" y="840" width="120" height="60" as="geometry" />
        </mxCell>
        <mxCell id="rrPpUQ1Ko49chvr30mVs-96" value="" style="endArrow=none;dashed=1;html=1;rounded=0;" edge="1" parent="1">
          <mxGeometry width="50" height="50" relative="1" as="geometry">
            <mxPoint x="920" y="1540" as="sourcePoint" />
            <mxPoint x="920" y="820" as="targetPoint" />
          </mxGeometry>
        </mxCell>
        <mxCell id="rrPpUQ1Ko49chvr30mVs-97" value="上下文数据更新(任务、情报信息)" style="text;html=1;align=center;verticalAlign=middle;resizable=0;points=[];autosize=1;strokeColor=none;fillColor=none;" vertex="1" parent="1">
          <mxGeometry x="710" y="970" width="200" height="30" as="geometry" />
        </mxCell>
        <mxCell id="rrPpUQ1Ko49chvr30mVs-98" value="执行环境准备(&lt;br&gt;规格、contribution、请求、埋点)" style="text;html=1;align=center;verticalAlign=middle;resizable=0;points=[];autosize=1;strokeColor=none;fillColor=none;" vertex="1" parent="1">
          <mxGeometry x="710" y="1032" width="200" height="40" as="geometry" />
        </mxCell>
        <mxCell id="rrPpUQ1Ko49chvr30mVs-100" value="情报触发" style="rounded=1;whiteSpace=wrap;html=1;" vertex="1" parent="1">
          <mxGeometry x="960" y="840" width="120" height="60" as="geometry" />
        </mxCell>
        <mxCell id="rrPpUQ1Ko49chvr30mVs-101" style="edgeStyle=orthogonalEdgeStyle;rounded=0;orthogonalLoop=1;jettySize=auto;html=1;entryX=0.004;entryY=0.395;entryDx=0;entryDy=0;entryPerimeter=0;" edge="1" parent="1" source="rrPpUQ1Ko49chvr30mVs-92" target="rrPpUQ1Ko49chvr30mVs-97">
          <mxGeometry relative="1" as="geometry" />
        </mxCell>
        <mxCell id="rrPpUQ1Ko49chvr30mVs-102" style="edgeStyle=orthogonalEdgeStyle;rounded=0;orthogonalLoop=1;jettySize=auto;html=1;entryX=0.499;entryY=0.056;entryDx=0;entryDy=0;entryPerimeter=0;" edge="1" parent="1" source="rrPpUQ1Ko49chvr30mVs-97" target="rrPpUQ1Ko49chvr30mVs-98">
          <mxGeometry relative="1" as="geometry" />
        </mxCell>
        <mxCell id="rrPpUQ1Ko49chvr30mVs-103" value="触发情报执行" style="text;html=1;align=center;verticalAlign=middle;resizable=0;points=[];autosize=1;strokeColor=none;fillColor=none;" vertex="1" parent="1">
          <mxGeometry x="970" y="1012" width="100" height="30" as="geometry" />
        </mxCell>
        <mxCell id="rrPpUQ1Ko49chvr30mVs-104" value="" style="endArrow=none;dashed=1;html=1;rounded=0;" edge="1" parent="1">
          <mxGeometry width="50" height="50" relative="1" as="geometry">
            <mxPoint x="1130" y="1540" as="sourcePoint" />
            <mxPoint x="1130" y="820" as="targetPoint" />
          </mxGeometry>
        </mxCell>
        <mxCell id="rrPpUQ1Ko49chvr30mVs-105" value="数据加载" style="rounded=1;whiteSpace=wrap;html=1;" vertex="1" parent="1">
          <mxGeometry x="1181" y="840" width="120" height="60" as="geometry" />
        </mxCell>
        <mxCell id="rrPpUQ1Ko49chvr30mVs-106" style="edgeStyle=orthogonalEdgeStyle;rounded=0;orthogonalLoop=1;jettySize=auto;html=1;entryX=-0.011;entryY=0.487;entryDx=0;entryDy=0;entryPerimeter=0;" edge="1" parent="1" source="rrPpUQ1Ko49chvr30mVs-98" target="rrPpUQ1Ko49chvr30mVs-103">
          <mxGeometry relative="1" as="geometry" />
        </mxCell>
        <mxCell id="rrPpUQ1Ko49chvr30mVs-107" value="加载编辑库数据" style="text;html=1;align=center;verticalAlign=middle;resizable=0;points=[];autosize=1;strokeColor=none;fillColor=none;" vertex="1" parent="1">
          <mxGeometry x="1186" y="1200" width="110" height="30" as="geometry" />
        </mxCell>
        <mxCell id="rrPpUQ1Ko49chvr30mVs-109" value="" style="endArrow=none;dashed=1;html=1;rounded=0;" edge="1" parent="1">
          <mxGeometry width="50" height="50" relative="1" as="geometry">
            <mxPoint x="1350" y="1540" as="sourcePoint" />
            <mxPoint x="1350" y="820" as="targetPoint" />
          </mxGeometry>
        </mxCell>
        <mxCell id="rrPpUQ1Ko49chvr30mVs-110" value="情报执行" style="rounded=1;whiteSpace=wrap;html=1;" vertex="1" parent="1">
          <mxGeometry x="1390" y="840" width="120" height="60" as="geometry" />
        </mxCell>
        <mxCell id="rrPpUQ1Ko49chvr30mVs-148" style="edgeStyle=orthogonalEdgeStyle;rounded=0;orthogonalLoop=1;jettySize=auto;html=1;" edge="1" parent="1" source="rrPpUQ1Ko49chvr30mVs-111" target="rrPpUQ1Ko49chvr30mVs-146">
          <mxGeometry relative="1" as="geometry" />
        </mxCell>
        <mxCell id="rrPpUQ1Ko49chvr30mVs-111" value="情报执行器" style="text;html=1;align=center;verticalAlign=middle;resizable=0;points=[];autosize=1;strokeColor=none;fillColor=none;" vertex="1" parent="1">
          <mxGeometry x="1410" y="1130" width="80" height="30" as="geometry" />
        </mxCell>
        <mxCell id="rrPpUQ1Ko49chvr30mVs-119" style="edgeStyle=orthogonalEdgeStyle;rounded=0;orthogonalLoop=1;jettySize=auto;html=1;" edge="1" parent="1" source="rrPpUQ1Ko49chvr30mVs-112" target="rrPpUQ1Ko49chvr30mVs-113">
          <mxGeometry relative="1" as="geometry" />
        </mxCell>
        <mxCell id="rrPpUQ1Ko49chvr30mVs-112" value="实时维护" style="text;html=1;align=center;verticalAlign=middle;resizable=0;points=[];autosize=1;strokeColor=none;fillColor=none;" vertex="1" parent="1">
          <mxGeometry x="1415" y="1230" width="70" height="30" as="geometry" />
        </mxCell>
        <mxCell id="rrPpUQ1Ko49chvr30mVs-121" style="edgeStyle=orthogonalEdgeStyle;rounded=0;orthogonalLoop=1;jettySize=auto;html=1;" edge="1" parent="1" source="rrPpUQ1Ko49chvr30mVs-113" target="rrPpUQ1Ko49chvr30mVs-114">
          <mxGeometry relative="1" as="geometry" />
        </mxCell>
        <mxCell id="rrPpUQ1Ko49chvr30mVs-113" value="被动维护" style="text;html=1;align=center;verticalAlign=middle;resizable=0;points=[];autosize=1;strokeColor=none;fillColor=none;" vertex="1" parent="1">
          <mxGeometry x="1415" y="1280" width="70" height="30" as="geometry" />
        </mxCell>
        <mxCell id="rrPpUQ1Ko49chvr30mVs-115" value="" style="endArrow=none;dashed=1;html=1;rounded=0;" edge="1" parent="1">
          <mxGeometry width="50" height="50" relative="1" as="geometry">
            <mxPoint x="1560" y="1550" as="sourcePoint" />
            <mxPoint x="1560" y="820" as="targetPoint" />
          </mxGeometry>
        </mxCell>
        <mxCell id="rrPpUQ1Ko49chvr30mVs-116" style="edgeStyle=orthogonalEdgeStyle;rounded=0;orthogonalLoop=1;jettySize=auto;html=1;entryX=-0.008;entryY=0.475;entryDx=0;entryDy=0;entryPerimeter=0;" edge="1" parent="1" source="rrPpUQ1Ko49chvr30mVs-103" target="rrPpUQ1Ko49chvr30mVs-107">
          <mxGeometry relative="1" as="geometry" />
        </mxCell>
        <mxCell id="rrPpUQ1Ko49chvr30mVs-117" style="edgeStyle=orthogonalEdgeStyle;rounded=0;orthogonalLoop=1;jettySize=auto;html=1;entryX=0.01;entryY=0.476;entryDx=0;entryDy=0;entryPerimeter=0;" edge="1" parent="1" source="rrPpUQ1Ko49chvr30mVs-107" target="rrPpUQ1Ko49chvr30mVs-111">
          <mxGeometry relative="1" as="geometry" />
        </mxCell>
        <mxCell id="rrPpUQ1Ko49chvr30mVs-122" value="" style="endArrow=none;dashed=1;html=1;dashPattern=1 3;strokeWidth=2;rounded=0;" edge="1" parent="1">
          <mxGeometry width="50" height="50" relative="1" as="geometry">
            <mxPoint x="-215" y="1374.89" as="sourcePoint" />
            <mxPoint x="2280" y="1370" as="targetPoint" />
          </mxGeometry>
        </mxCell>
        <mxCell id="rrPpUQ1Ko49chvr30mVs-114" value="事务处理" style="text;html=1;align=center;verticalAlign=middle;resizable=0;points=[];autosize=1;strokeColor=none;fillColor=none;" vertex="1" parent="1">
          <mxGeometry x="1415" y="1330" width="70" height="30" as="geometry" />
        </mxCell>
        <mxCell id="rrPpUQ1Ko49chvr30mVs-123" value="错误处理" style="rounded=1;whiteSpace=wrap;html=1;" vertex="1" parent="1">
          <mxGeometry x="1600" y="840" width="120" height="60" as="geometry" />
        </mxCell>
        <mxCell id="rrPpUQ1Ko49chvr30mVs-127" style="edgeStyle=orthogonalEdgeStyle;rounded=0;orthogonalLoop=1;jettySize=auto;html=1;" edge="1" parent="1" source="rrPpUQ1Ko49chvr30mVs-124" target="rrPpUQ1Ko49chvr30mVs-125">
          <mxGeometry relative="1" as="geometry" />
        </mxCell>
        <mxCell id="rrPpUQ1Ko49chvr30mVs-124" value="情报标记成功/失败" style="text;html=1;align=center;verticalAlign=middle;resizable=0;points=[];autosize=1;strokeColor=none;fillColor=none;" vertex="1" parent="1">
          <mxGeometry x="1600" y="1160" width="120" height="30" as="geometry" />
        </mxCell>
        <mxCell id="rrPpUQ1Ko49chvr30mVs-125" value="保存被动维护抛log" style="text;html=1;align=center;verticalAlign=middle;resizable=0;points=[];autosize=1;strokeColor=none;fillColor=none;" vertex="1" parent="1">
          <mxGeometry x="1600" y="1230" width="120" height="30" as="geometry" />
        </mxCell>
        <mxCell id="rrPpUQ1Ko49chvr30mVs-126" style="edgeStyle=orthogonalEdgeStyle;rounded=0;orthogonalLoop=1;jettySize=auto;html=1;entryX=0.003;entryY=0.506;entryDx=0;entryDy=0;entryPerimeter=0;" edge="1" parent="1" source="rrPpUQ1Ko49chvr30mVs-114" target="rrPpUQ1Ko49chvr30mVs-124">
          <mxGeometry relative="1" as="geometry" />
        </mxCell>
        <mxCell id="rrPpUQ1Ko49chvr30mVs-128" value="" style="endArrow=none;dashed=1;html=1;rounded=0;" edge="1" parent="1">
          <mxGeometry width="50" height="50" relative="1" as="geometry">
            <mxPoint x="1770" y="1550" as="sourcePoint" />
            <mxPoint x="1770" y="820" as="targetPoint" />
          </mxGeometry>
        </mxCell>
        <mxCell id="rrPpUQ1Ko49chvr30mVs-129" value="数据保存" style="rounded=1;whiteSpace=wrap;html=1;" vertex="1" parent="1">
          <mxGeometry x="1820" y="840" width="120" height="60" as="geometry" />
        </mxCell>
        <mxCell id="rrPpUQ1Ko49chvr30mVs-140" style="edgeStyle=orthogonalEdgeStyle;rounded=0;orthogonalLoop=1;jettySize=auto;html=1;" edge="1" parent="1" source="rrPpUQ1Ko49chvr30mVs-130" target="rrPpUQ1Ko49chvr30mVs-131">
          <mxGeometry relative="1" as="geometry" />
        </mxCell>
        <mxCell id="rrPpUQ1Ko49chvr30mVs-130" value="数据写入" style="text;html=1;align=center;verticalAlign=middle;resizable=0;points=[];autosize=1;strokeColor=none;fillColor=none;" vertex="1" parent="1">
          <mxGeometry x="1845" y="1160" width="70" height="30" as="geometry" />
        </mxCell>
        <mxCell id="rrPpUQ1Ko49chvr30mVs-141" style="edgeStyle=orthogonalEdgeStyle;rounded=0;orthogonalLoop=1;jettySize=auto;html=1;" edge="1" parent="1" source="rrPpUQ1Ko49chvr30mVs-131" target="rrPpUQ1Ko49chvr30mVs-135">
          <mxGeometry relative="1" as="geometry" />
        </mxCell>
        <mxCell id="rrPpUQ1Ko49chvr30mVs-131" value="保存结果处理" style="text;html=1;align=center;verticalAlign=middle;resizable=0;points=[];autosize=1;strokeColor=none;fillColor=none;" vertex="1" parent="1">
          <mxGeometry x="1830" y="1220" width="100" height="30" as="geometry" />
        </mxCell>
        <mxCell id="rrPpUQ1Ko49chvr30mVs-132" value="" style="endArrow=none;dashed=1;html=1;rounded=0;" edge="1" parent="1">
          <mxGeometry width="50" height="50" relative="1" as="geometry">
            <mxPoint x="2000" y="1550" as="sourcePoint" />
            <mxPoint x="2000" y="820" as="targetPoint" />
          </mxGeometry>
        </mxCell>
        <mxCell id="rrPpUQ1Ko49chvr30mVs-133" value="任务结束" style="rounded=1;whiteSpace=wrap;html=1;" vertex="1" parent="1">
          <mxGeometry x="2040" y="840" width="120" height="60" as="geometry" />
        </mxCell>
        <mxCell id="rrPpUQ1Ko49chvr30mVs-134" value="" style="endArrow=none;dashed=1;html=1;rounded=0;" edge="1" parent="1">
          <mxGeometry width="50" height="50" relative="1" as="geometry">
            <mxPoint x="2200" y="1550" as="sourcePoint" />
            <mxPoint x="2200" y="820" as="targetPoint" />
          </mxGeometry>
        </mxCell>
        <mxCell id="rrPpUQ1Ko49chvr30mVs-142" style="edgeStyle=orthogonalEdgeStyle;rounded=0;orthogonalLoop=1;jettySize=auto;html=1;" edge="1" parent="1" source="rrPpUQ1Ko49chvr30mVs-135" target="rrPpUQ1Ko49chvr30mVs-136">
          <mxGeometry relative="1" as="geometry" />
        </mxCell>
        <mxCell id="rrPpUQ1Ko49chvr30mVs-135" value="清除上下文" style="text;html=1;align=center;verticalAlign=middle;resizable=0;points=[];autosize=1;strokeColor=none;fillColor=none;" vertex="1" parent="1">
          <mxGeometry x="2060" y="1400" width="80" height="30" as="geometry" />
        </mxCell>
        <mxCell id="rrPpUQ1Ko49chvr30mVs-143" style="edgeStyle=orthogonalEdgeStyle;rounded=0;orthogonalLoop=1;jettySize=auto;html=1;" edge="1" parent="1" source="rrPpUQ1Ko49chvr30mVs-136" target="rrPpUQ1Ko49chvr30mVs-137">
          <mxGeometry relative="1" as="geometry" />
        </mxCell>
        <mxCell id="rrPpUQ1Ko49chvr30mVs-136" value="历史数据、加载数据清空" style="text;html=1;align=center;verticalAlign=middle;resizable=0;points=[];autosize=1;strokeColor=none;fillColor=none;" vertex="1" parent="1">
          <mxGeometry x="2020" y="1458" width="160" height="30" as="geometry" />
        </mxCell>
        <mxCell id="rrPpUQ1Ko49chvr30mVs-144" style="edgeStyle=orthogonalEdgeStyle;rounded=0;orthogonalLoop=1;jettySize=auto;html=1;" edge="1" parent="1" source="rrPpUQ1Ko49chvr30mVs-137" target="rrPpUQ1Ko49chvr30mVs-82">
          <mxGeometry relative="1" as="geometry">
            <mxPoint x="370" y="1500" as="targetPoint" />
          </mxGeometry>
        </mxCell>
        <mxCell id="rrPpUQ1Ko49chvr30mVs-137" value="返回执行结果" style="text;html=1;align=center;verticalAlign=middle;resizable=0;points=[];autosize=1;strokeColor=none;fillColor=none;" vertex="1" parent="1">
          <mxGeometry x="2050" y="1518" width="100" height="30" as="geometry" />
        </mxCell>
        <mxCell id="rrPpUQ1Ko49chvr30mVs-145" style="edgeStyle=orthogonalEdgeStyle;rounded=0;orthogonalLoop=1;jettySize=auto;html=1;entryX=0.01;entryY=0.556;entryDx=0;entryDy=0;entryPerimeter=0;" edge="1" parent="1" source="rrPpUQ1Ko49chvr30mVs-82" target="rrPpUQ1Ko49chvr30mVs-80">
          <mxGeometry relative="1" as="geometry">
            <Array as="points">
              <mxPoint x="35" y="1087" />
              <mxPoint x="35" y="1029" />
            </Array>
          </mxGeometry>
        </mxCell>
        <mxCell id="rrPpUQ1Ko49chvr30mVs-149" style="edgeStyle=orthogonalEdgeStyle;rounded=0;orthogonalLoop=1;jettySize=auto;html=1;" edge="1" parent="1" source="rrPpUQ1Ko49chvr30mVs-146" target="rrPpUQ1Ko49chvr30mVs-112">
          <mxGeometry relative="1" as="geometry" />
        </mxCell>
        <mxCell id="rrPpUQ1Ko49chvr30mVs-146" value="执行前检查" style="text;html=1;align=center;verticalAlign=middle;resizable=0;points=[];autosize=1;strokeColor=none;fillColor=none;" vertex="1" parent="1">
          <mxGeometry x="1410" y="1180" width="80" height="30" as="geometry" />
        </mxCell>
        <mxCell id="rrPpUQ1Ko49chvr30mVs-150" style="edgeStyle=orthogonalEdgeStyle;rounded=0;orthogonalLoop=1;jettySize=auto;html=1;entryX=0.014;entryY=0.38;entryDx=0;entryDy=0;entryPerimeter=0;" edge="1" parent="1" source="rrPpUQ1Ko49chvr30mVs-125" target="rrPpUQ1Ko49chvr30mVs-130">
          <mxGeometry relative="1" as="geometry" />
        </mxCell>
      </root>
    </mxGraphModel>
  </diagram>
</mxfile>
